<?xml version="1.0" encoding="UTF-8"?>
<svg width="390px" height="77px" viewBox="0 0 390 77" version="1.1" xmlns="http://www.w3.org/2000/svg" xmlns:xlink="http://www.w3.org/1999/xlink">
    <!-- Generator: Sketch 59.1 (86144) - https://sketch.com -->
    <title>Artboard</title>
    <desc>Created with Sketch.</desc>
    <defs>
        <linearGradient x1="39.9317825%" y1="48.4773502%" x2="42.2764301%" y2="51.9490467%" id="linearGradient-1">
            <stop stop-color="#00BFFF" offset="0%"></stop>
            <stop stop-color="#0076FF" offset="100%"></stop>
        </linearGradient>
    </defs>
    <g id="Artboard" stroke="none" stroke-width="1" fill="none" fill-rule="evenodd">
        <rect id="Rectangle" fill="url(#linearGradient-1)" x="0" y="0" width="390" height="77"></rect>
        <text id="ongatudo" font-family="Helvetica-Bold, Helvetica" font-size="72" font-weight="bold" fill="#FFFFFF">
            <tspan x="61" y="58">ongatudo</tspan>
        </text>
        <g id="C" transform="translate(3.000000, 3.000000)">
            <path d="M0.59375,30.6796875 C0.59375,20.6275539 3.28903555,12.8802355 8.6796875,7.4375 C13.3672109,2.69789297 19.330693,0.328125 26.5703125,0.328125 C36.2578609,0.328125 43.3411234,3.50517656 47.8203125,9.859375 C49.1614434,11.7934269 50.1658422,13.7312894 50.8335155,15.6729797 C51.1266353,16.5254146 51.354856,17.3785871 51.5181782,18.2324989 C51.61879,18.7585365 47.7038764,19.5482243 39.7734375,20.6015625 C38.9921836,17.841132 37.9895895,15.7578195 36.765625,14.3515625 C34.5781141,11.85155 31.335959,10.6015625 27.0390625,10.6015625 C22.6640406,10.6015625 19.2135543,12.3658678 16.6875,15.8945312 C14.1614457,19.4231947 12.8984375,24.4166344 12.8984375,30.875 C12.8984375,37.3333656 14.2330596,42.1705568 16.9023437,45.3867188 C19.5716279,48.6028807 22.9635211,50.2109375 27.078125,50.2109375 C31.2968961,50.2109375 34.5130098,48.830743 36.7265625,46.0703125 C37.950527,44.5859301 38.9661418,42.3593898 39.7734375,39.390625 C47.4896527,40.5989499 51.2737653,41.4926349 51.1257755,42.07168 C49.8314472,47.136045 47.3559449,51.3464949 43.6992187,54.703125 C39.4153432,58.6354363 33.9271168,60.6015625 27.234375,60.6015625 C18.9530836,60.6015625 12.442732,57.9453391 7.703125,52.6328125 C2.96351797,47.2942441 0.59375,39.976609 0.59375,30.6796875 Z" fill="#FCF7F7" fill-rule="nonzero"></path>
            <circle id="Oval" fill="#FFFFFF" cx="46.5" cy="30.5" r="6.5"></circle>
        </g>
        <text id="Add-on" font-family="Helvetica-Light, Helvetica" font-size="16" font-weight="300" fill="#FFFFFF">
            <tspan x="296" y="73">Add on</tspan>
        </text>
    </g>
</svg>